<svg width="48" height="48" viewBox="0 0 48 48" fill="none" xmlns="http://www.w3.org/2000/svg">
<mask id="mask0_79_18" style="mask-type:alpha" maskUnits="userSpaceOnUse" x="0" y="0" width="48" height="48">
<rect width="48" height="48" fill="#D9D9D9"/>
</mask>
<g mask="url(#mask0_79_18)">
<path d="M9.55001 45C8.28271 45 7.20339 44.5543 6.31206 43.663C5.42069 42.7716 4.97501 41.6923 4.97501 40.425V10.525C4.97501 9.24396 5.42069 8.15286 6.31206 7.25169C7.20339 6.35056 8.28271 5.89999 9.55001 5.89999H12.475V2.89999H16.45V5.89999H31.55V2.89999H35.525V5.89999H38.45C39.731 5.89999 40.8221 6.35056 41.7233 7.25169C42.6244 8.15286 43.075 9.24396 43.075 10.525V40.425C43.075 41.6923 42.6244 42.7716 41.7233 43.663C40.8221 44.5543 39.731 45 38.45 45H9.55001ZM9.55001 40.425H38.45V19.55H9.55001V40.425ZM9.55001 16.675H38.45V10.525H9.55001V16.675ZM24.0079 28.275C23.3656 28.275 22.8245 28.0577 22.3847 27.6232C21.9449 27.1887 21.725 26.6502 21.725 26.0079C21.725 25.3656 21.9423 24.8245 22.3768 24.3847C22.8113 23.9449 23.3498 23.725 23.9921 23.725C24.6344 23.725 25.1755 23.9423 25.6153 24.3768C26.0551 24.8113 26.275 25.3498 26.275 25.9921C26.275 26.6344 26.0577 27.1755 25.6232 27.6153C25.1887 28.0551 24.6502 28.275 24.0079 28.275ZM16.0079 28.275C15.3656 28.275 14.8245 28.0577 14.3847 27.6232C13.9449 27.1887 13.725 26.6502 13.725 26.0079C13.725 25.3656 13.9423 24.8245 14.3768 24.3847C14.8113 23.9449 15.3498 23.725 15.9921 23.725C16.6344 23.725 17.1755 23.9423 17.6153 24.3768C18.0551 24.8113 18.275 25.3498 18.275 25.9921C18.275 26.6344 18.0577 27.1755 17.6232 27.6153C17.1887 28.0551 16.6502 28.275 16.0079 28.275ZM32.0079 28.275C31.4122 28.275 30.8828 28.0577 30.4197 27.6232C29.9566 27.1887 29.725 26.6502 29.725 26.0079C29.725 25.3656 29.9539 24.8245 30.4118 24.3847C30.8697 23.9449 31.4048 23.725 32.0171 23.725C32.6295 23.725 33.1589 23.9423 33.6053 24.3768C34.0518 24.8113 34.275 25.3498 34.275 25.9921C34.275 26.6344 34.0577 27.1755 33.6232 27.6153C33.1887 28.0551 32.6502 28.275 32.0079 28.275ZM24.0079 36.275C23.3656 36.275 22.8245 36.0461 22.3847 35.5882C21.9449 35.1303 21.725 34.5952 21.725 33.9829C21.725 33.3706 21.9423 32.8412 22.3768 32.3947C22.8113 31.9482 23.3498 31.725 23.9921 31.725C24.6344 31.725 25.1755 31.9423 25.6153 32.3768C26.0551 32.8113 26.275 33.3498 26.275 33.9921C26.275 34.5878 26.0577 35.1172 25.6232 35.5803C25.1887 36.0434 24.6502 36.275 24.0079 36.275ZM16.0079 36.275C15.3656 36.275 14.8245 36.0461 14.3847 35.5882C13.9449 35.1303 13.725 34.5952 13.725 33.9829C13.725 33.3706 13.9423 32.8412 14.3768 32.3947C14.8113 31.9482 15.3498 31.725 15.9921 31.725C16.6344 31.725 17.1755 31.9423 17.6153 32.3768C18.0551 32.8113 18.275 33.3498 18.275 33.9921C18.275 34.5878 18.0577 35.1172 17.6232 35.5803C17.1887 36.0434 16.6502 36.275 16.0079 36.275ZM32.0079 36.275C31.4122 36.275 30.8828 36.0461 30.4197 35.5882C29.9566 35.1303 29.725 34.5952 29.725 33.9829C29.725 33.3706 29.9539 32.8412 30.4118 32.3947C30.8697 31.9482 31.4048 31.725 32.0171 31.725C32.6295 31.725 33.1589 31.9423 33.6053 32.3768C34.0518 32.8113 34.275 33.3498 34.275 33.9921C34.275 34.5878 34.0577 35.1172 33.6232 35.5803C33.1887 36.0434 32.6502 36.275 32.0079 36.275Z" fill="white"/>
</g>
</svg>
