<svg width="48" height="48" viewBox="0 0 48 48" fill="none" xmlns="http://www.w3.org/2000/svg">
<g id="restart_alt">
<mask id="mask0_6_69" style="mask-type:alpha" maskUnits="userSpaceOnUse" x="0" y="0" width="48" height="48">
<rect id="Bounding box" width="48" height="48" fill="#D9D9D9"/>
</mask>
<g mask="url(#mask0_6_69)">
<path id="restart_alt_2" d="M22.625 42.95C18.225 42.6167 14.5167 40.8292 11.5 37.5875C8.48334 34.3458 6.97501 30.5083 6.97501 26.075C6.97501 23.4417 7.57084 20.9583 8.76251 18.625C9.95417 16.2917 11.625 14.35 13.775 12.8L17.05 16.05C15.35 17.1167 14.0083 18.55 13.025 20.35C12.0417 22.15 11.55 24.0583 11.55 26.075C11.55 29.3083 12.6042 32.0792 14.7125 34.3875C16.8208 36.6958 19.4583 38.0083 22.625 38.325V42.95ZM25.5 42.95V38.325C28.7167 37.9917 31.3583 36.675 33.425 34.375C35.4917 32.075 36.525 29.3083 36.525 26.075C36.525 22.775 35.4083 19.9292 33.175 17.5375C30.9417 15.1458 28.1667 13.85 24.85 13.65H23.65L26.9 16.95L24.45 19.425L16.15 11.125L24.45 2.775L26.9 5.225L23.1 9.025H24.35C29.0167 9.025 32.9833 10.7 36.25 14.05C39.5167 17.4 41.15 21.4083 41.15 26.075C41.15 30.525 39.6375 34.3667 36.6125 37.6C33.5875 40.8333 29.8833 42.6167 25.5 42.95Z" fill="white"/>
</g>
</g>
</svg>
