<svg width="48" height="48" viewBox="0 0 48 48" fill="none" xmlns="http://www.w3.org/2000/svg">
<g id="speed">
<mask id="mask0_6_40" style="mask-type:alpha" maskUnits="userSpaceOnUse" x="0" y="0" width="48" height="48">
<rect id="Bounding box" width="48" height="48" fill="#D9D9D9"/>
</mask>
<g mask="url(#mask0_6_40)">
<path id="speed_2" d="M20.3587 31.7405C21.116 32.5135 22.2122 32.875 23.6473 32.825C25.0824 32.775 26.15 32.2333 26.85 31.2L38.65 13.25L20.9 25.2C19.9 25.9 19.3667 26.9758 19.3 28.4275C19.2333 29.8792 19.5862 30.9835 20.3587 31.7405ZM23.9024 6.75C25.9649 6.75 28.1552 7.1 30.4731 7.8C32.791 8.5 34.9167 9.61667 36.85 11.15L32.7 14.2C31.2 13.2333 29.6667 12.5417 28.1 12.125C26.5333 11.7083 25.1259 11.5 23.8776 11.5C19.3761 11.5 15.5128 13.1247 12.2877 16.3742C9.06255 19.6237 7.45 23.5595 7.45 28.1818C7.45 29.6939 7.64167 31.15 8.025 32.55C8.40833 33.95 8.96667 35.2833 9.7 36.55H38.042C38.7807 35.35 39.3417 34.025 39.725 32.575C40.1083 31.125 40.3 29.6333 40.3 28.1C40.3 26.8333 40.125 25.4333 39.775 23.9C39.425 22.3667 38.7333 20.9167 37.7 19.55L40.85 15.45C42.25 17.4167 43.2833 19.4583 43.95 21.575C44.6167 23.6917 44.9833 25.7667 45.05 27.8C45.0833 29.8646 44.858 31.8444 44.3741 33.7395C43.8902 35.6346 43.1655 37.3881 42.2 39C41.6333 39.9667 41.0432 40.5833 40.4297 40.85C39.8161 41.1167 39.0562 41.25 38.15 41.25H9.6C8.8 41.25 8.025 41.05 7.275 40.65C6.525 40.25 5.96667 39.7 5.6 39C4.7 37.3667 4 35.6522 3.5 33.8566C3 32.061 2.75 30.1743 2.75 28.1967C2.75 25.2656 3.30127 22.5099 4.4038 19.9298C5.5063 17.3497 7.01757 15.0816 8.9376 13.1256C10.8576 11.1696 13.1094 9.618 15.6928 8.4708C18.2763 7.3236 21.0128 6.75 23.9024 6.75Z" fill="white"/>
</g>
</g>
</svg>
