<svg width="48" height="48" viewBox="0 0 48 48" fill="none" xmlns="http://www.w3.org/2000/svg">
<g id="schedule">
<mask id="mask0_4_158" style="mask-type:alpha" maskUnits="userSpaceOnUse" x="0" y="0" width="48" height="48">
<rect id="Bounding box" width="48" height="48" fill="#D9D9D9"/>
</mask>
<g mask="url(#mask0_4_158)">
<path id="schedule_2" d="M30.775 33.75L33.8 30.825L26.15 23.1081V13.625H22.175V24.7528L30.775 33.75ZM24.0101 45C21.1065 45 18.3791 44.4478 15.8279 43.3435C13.2768 42.2392 11.0534 40.7381 9.15755 38.8402C7.26172 36.9424 5.7615 34.721 4.6569 32.176C3.5523 29.6311 3 26.9087 3 24.0087C3 21.106 3.55578 18.3772 4.66735 15.8223C5.77892 13.2675 7.27912 11.0473 9.16795 9.1617C11.0568 7.27613 13.2749 5.76946 15.8221 4.6417C18.3693 3.5139 21.0942 2.95 23.9968 2.95C26.9021 2.95 29.6306 3.51411 32.1823 4.64235C34.7341 5.77055 36.9527 7.27908 38.8383 9.16795C40.7239 11.0568 42.2305 13.2749 43.3583 15.8221C44.4861 18.3693 45.05 21.0942 45.05 23.9968C45.05 26.9021 44.4859 29.6306 43.3577 32.1823C42.2295 34.7341 40.7209 36.9527 38.8321 38.8383C36.9432 40.7239 34.7259 42.2222 32.1801 43.3333C29.6343 44.4444 26.911 45 24.0101 45ZM23.962 40.425C28.4707 40.425 32.3417 38.8292 35.575 35.6375C38.8083 32.4458 40.425 28.5792 40.425 24.0375C40.425 19.4958 38.8109 15.6167 35.5826 12.4C32.3543 9.18333 28.4936 7.575 24.0005 7.575C19.4668 7.575 15.5958 9.18095 12.3875 12.3928C9.17917 15.6047 7.575 19.4738 7.575 24C7.575 28.5667 9.17902 32.4458 12.387 35.6375C15.5951 38.8292 19.4534 40.425 23.962 40.425Z" fill="white"/>
</g>
</g>
</svg>
